/* XPM */
static char *_6ed49d392aa42748792422652ba7d246qFHsywnSUr4Y2zo[] = {
/* columns rows colors chars-per-pixel */
"64 64 77 1 ",
"  c None",
". c #092542",
"X c #092543",
"o c #0A2442",
"O c #0A2542",
"+ c #0A2443",
"@ c #0B2443",
"# c #0A2543",
"$ c #0B2543",
"% c #092643",
"& c #0B2642",
"* c #0A2643",
"= c #092544",
"- c #0A2544",
"; c #0B2544",
": c #0A2644",
"> c #0A2645",
", c #0B2645",
"< c #0B2746",
"1 c #0B2847",
"2 c #0B2A4B",
"3 c #0C294A",
"4 c #0C2A4B",
"5 c #0F3158",
"6 c #163353",
"7 c #193757",
"8 c #1B3859",
"9 c #1B385A",
"0 c #103D70",
"q c #103E70",
"w c #113E71",
"e c #113F71",
"r c #113E72",
"t c #113F72",
"y c #103F74",
"u c #104074",
"i c #114075",
"p c #114175",
"a c #114176",
"s c #12447C",
"d c #12457D",
"f c #12457E",
"g c #12467E",
"h c #17487F",
"j c #134780",
"k c #134781",
"l c #134782",
"z c #134881",
"x c #134882",
"c c #144B88",
"v c #165194",
"b c #1D5594",
"n c #16559A",
"m c #1E5698",
"M c #1E5799",
"N c #1D589A",
"B c #1E589A",
"V c #1E589B",
"C c #385A81",
"Z c #385B81",
"A c #3B5E86",
"S c #3C5E86",
"D c #3C5F87",
"F c #1F5BA0",
"G c #2364B0",
"H c #2366B2",
"J c #266CBD",
"K c #266CBE",
"L c #276EC1",
"P c #2E81E1",
"I c #709BCC",
"U c #78A5D8",
"Y c #79A5D9",
"T c #7FADE1",
"R c #80ADE1",
"E c #87B6EC",
"W c #88B7ED",
/* pixels */
"                           ###;##;##;                           ",
"                      ####################                      ",
"                    ########################                    ",
"                 #;##########################;;                 ",
"                ################################                ",
"              ####################################              ",
"             ######################################             ",
"           ;#########################################           ",
"          ;###########################################          ",
"         ;#############################################         ",
"        ###############################################;        ",
"       ;################################################;       ",
"       ##################################################       ",
"      ######bLLLLLLLLLLLLLLLLLLLLLLLLH4###################      ",
"     #######;HPPPPPPPPPPPPPPPPPPPPPPPPJ4###################     ",
"     ########;HPPPPPPPPPPPPPPPPPPPPPPPPJ4##################     ",
"    ##########;HPPPPPPPPPPPPPPPPPPPPPPPPJ4##################    ",
"   ############;HPPPPPPPPPPPPPPPPPPPPPPPPJ4#################    ",
"   ;############;HPPPPPPPPPPPPPPPPPPPPPPPPJ4#################   ",
"   ##############;HPPPPPPPPPPPPPPPPPPPPPPPPJ4################   ",
"  ################;HPPPPPPPPPPPPPPPPPPPPPPPPJ4################  ",
"  #################;HPPPPPPPPPPPPPPPPPPPPPPPPJ4###############  ",
" ###################;HPPPPPPPPPPPPPPPPPPPPPPPPJ4##############; ",
" ####################1HPPPPPPPPPPPPPPPPPPPPPPPPJ2############## ",
" #####################1HPPPPPPPPPPPPPPPPPPPPPPPPJ2############# ",
" ######################1HPPPPPPPPPPPPPPPPPPPPPPPPJ2############ ",
";#######################;55555555555555555555555552############ ",
"################################################################",
";###############################################################",
"############tvvvvvvvvvvvvvvvvvs;###ZTRRRRRRRRRRRRI6#############",
"############;pnnnnnnnnnnnnnnnnns;###SEWWWWWWWWWWU8##############",
"#############;pnnnnnnnnnnnnnnnnns;###SEWWWWWWWWU8###############",
"##############;pnnnnnnnnnnnnnnnnns;###SEWWWWWWU8################",
"###########;###;pnnnnnnnnnnnnnnnnns;###SEWWWWU8#################",
"###########4M###;pnnnnnnnnnnnnnnnnns;###SEWWU8##################",
";##########4PM###;pnnnnnnnnnnnnnnnnnk;###AEU8###################",
";##########4PPM###;pnnnnnnnnnnnnnnnnnk;###Z7####################",
" ##########4PPPM###;pnnnnnnnnnnnnnnnnnk;####################### ",
" ##########4PPPPM###;pnnnnnnnnnnnnnnnnnk;###################### ",
" ##########4PPPPPV###;pnnnnnnnnnnnnnnnnnk;##################### ",
" ##########4PPPPPPV###;pnnnnnnnnnnnnnnnnnz;#################### ",
" ##########4PPPPPPPV###;pnnnnnnnnnnnnnnnnnz;################### ",
"  #########4PPPPPPPPV####tnnnnnnnnnnnnnnnnnz;#################  ",
"  #########4PPPPPPPPPV####tnnnnnnnnnnnnnnnnnz;################  ",
"   ########4PPPPPPPPPPV####tnnnnnnnnnnnnnnnnnk;##############   ",
"   ;#######4PPPPPPPPPPPV####ynnnnnnnnnnnnnnnnnk;#############   ",
"   ########4PPPPPPPPPPPPV####tnnnnnnnnnnnnnnnnnk;###########    ",
"    #######4PPPPPPPPPPPPPV;###tnnnnnnnnnnnnnnnnnk;##########    ",
"     ######4PPPPPPPPPPPPPPV;###tnnnnnnnnnnnnnnnnnk;########     ",
"     ######4PPPPPPPPPPPPPPPF;###tnnnnnnnnnnnnnnnnnz;#######     ",
"      #####4LLLLLLLLLLLLLLLLh####tccccccccccccccccct######      ",
"       ##################################################       ",
"       ##################################################       ",
"        ################################################        ",
"         ;#############################################         ",
"          ############################################          ",
"           ;#########################################           ",
"             ;#####################################             ",
"              ####################################              ",
"                ################################                ",
"                  ############################                  ",
"                    ########################                    ",
"                      ;###################                      ",
"                           ##########                           "
};
