/* XPM */
static char *_f6eff86c2974053db087091580cee557eL0pUAN2ZPXS3lb[] = {
/* columns rows colors chars-per-pixel */
"32 32 65 1 ",
"  c None",
". c #092443",
"X c #092543",
"o c #0A2442",
"O c #0A2542",
"+ c #0A2443",
"@ c #0A2543",
"# c #0B2543",
"$ c #092642",
"% c #0A2643",
"& c #0A2544",
"* c #0A2644",
"= c #0B2745",
"- c #0B2646",
"; c #0B2847",
": c #0D2847",
"> c #0C2949",
", c #0C2A4E",
"< c #0C2B4E",
"1 c #0C2C4E",
"2 c #0C2C4F",
"3 c #0C2C50",
"4 c #0C2D51",
"5 c #0C2D52",
"6 c #0C2D53",
"7 c #0D2E52",
"8 c #0C2E53",
"9 c #0C2E54",
"0 c #0C2F55",
"q c #0D2F55",
"w c #163353",
"e c #193757",
"r c #0E3560",
"t c #0E3663",
"y c #0F3866",
"u c #0F3C6C",
"i c #113660",
"p c #164377",
"a c #17477E",
"s c #2F5075",
"d c #305176",
"f c #305177",
"g c #184A82",
"h c #144F8F",
"j c #155090",
"k c #155091",
"l c #155193",
"z c #165194",
"x c #155294",
"c c #165294",
"v c #16559A",
"b c #1E5698",
"n c #1E5799",
"m c #1E589A",
"M c #2161AC",
"N c #2262AC",
"B c #41658D",
"V c #42668E",
"C c #43668F",
"Z c #426790",
"A c #446993",
"S c #2C7AD5",
"D c #2E81E1",
"F c #84B3E8",
"G c #88B7ED",
/* pixels */
"            ........            ",
"         ..............         ",
"       ..................       ",
"      ....................      ",
"     ......................     ",
"    ........................    ",
"   ...pggggggggggga=........=   ",
"  ....iSDDDDDDDDDDDM=.........  ",
"  .....iSDDDDDDDDDDDM=........  ",
" .......iSDDDDDDDDDDDM=........ ",
" ........iSDDDDDDDDDDDM=....... ",
" .........iSDDDDDDDDDDDM=...... ",
"...........iSDDDDDDDDDDDM=......",
"............>111111111111=......",
"......tuuuuuuuu4.wAAAAAAC:......",
"......4lvvvvvvvl4.ZGGGGFd.......",
".......4lvvvvvvvl4.CGGFd........",
".....:b.1lvvvvvvvl4.CFs.........",
".....;Db.1lvvvvvvvz0.e..........",
".....;DDb.1lvvvvvvvz0...........",
" ....;DDDb.1lvvvvvvvz0......... ",
" ....;DDDDb.,hvvvvvvvz0........ ",
" ....;DDDDDb.4lvvvvvvvz4....... ",
"  ...;DDDDDDb.,hvvvvvvvz0.....  ",
"  ...;DDDDDDDm.,hvvvvvvvz0....  ",
"   ..=gggggggg4.,yyyyyyyyt...   ",
"    ........................    ",
"     ......................     ",
"      ....................      ",
"       ..................       ",
"         ..............         ",
"            .=....==            "
};
