/* XPM */
static char *_15e6586ba71494dfc7b8759087b7207NWH0sUpFg7OXyJQ6[] = {
/* columns rows colors chars-per-pixel */
"16 16 55 1 ",
"  c None",
". c #092542",
"X c #092443",
"o c #092543",
"O c #0A2542",
"+ c #0A2443",
"@ c #0B2443",
"# c #0A2543",
"$ c #0B2543",
"% c #092643",
"& c #0B2642",
"* c #0A2444",
"= c #0A2544",
"- c #0A2644",
"; c #0B2745",
": c #0B2747",
"> c #0A2748",
", c #0C2849",
"< c #0C2949",
"1 c #0C294A",
"2 c #0C294B",
"3 c #0E2A4B",
"4 c #0E2B4D",
"5 c #0F3159",
"6 c #0F335B",
"7 c #18385B",
"8 c #0F3968",
"9 c #0F3C6B",
"0 c #113660",
"q c #114176",
"w c #12437A",
"e c #12457D",
"r c #214063",
"t c #134882",
"y c #134883",
"u c #134985",
"i c #134A85",
"p c #134A86",
"a c #1C5391",
"s c #1C5494",
"d c #1D5595",
"f c #1E5697",
"g c #16559A",
"h c #1E589A",
"j c #3D6189",
"k c #205DA3",
"l c #2262AC",
"z c #2569B7",
"x c #256ABA",
"c c #567DA9",
"v c #2A76CF",
"b c #668FBE",
"n c #2E81E1",
"m c #6790C0",
"M c #75A1D5",
/* pixels */
"     %%%%%%     ",
"   %%%%%%%%%%   ",
"  %%%%%%%%%=%%  ",
" =%azzzzzs=%%%= ",
" %%1xnnnnnk=%%% ",
"%%%%1xnnnnnk=%%%",
"%%%%%1ssssss0%%%",
"%%%9yyyw1cmbr%%%",
"%%=5ygggp7Mj%%%%",
"%%=v5ygggp4%%%%%",
"%%=nv5ygggp>%%%%",
" %=nnv5ygggp=%% ",
" %=lllh1qeee8%% ",
"  %%%%%%%%%%%%  ",
"   =%%%%%%%%%   ",
"     %%%%%%     "
};
